<?xml version="1.0"?>
<svg xmlns="http://www.w3.org/2000/svg" xmlns:xlink="http://www.w3.org/1999/xlink" xmlns:svgjs="http://svgjs.com/svgjs" version="1.1" width="512" height="512" x="0" y="0" viewBox="0 0 512 512" style="enable-background:new 0 0 512 512" xml:space="preserve" class=""><g><g xmlns="http://www.w3.org/2000/svg"><path d="m512 411.454v-269.844h-103.243v-6.37c0-57.523-43-105.187-98.544-112.551v-22.689h-30v22.69c-55.544 7.363-98.544 55.028-98.544 112.551v6.37h-78.094l-26.292-69.673h-77.283v30h56.539l21.664 57.409v252.107h29.572v14.464c-17.094 6.163-29.349 22.541-29.349 41.732 0 24.454 19.895 44.35 44.349 44.35 19.191 0 35.57-12.256 41.733-29.35h261.411c6.163 17.094 22.541 29.35 41.732 29.35 24.454 0 44.35-19.896 44.35-44.35 0-19.191-12.256-35.569-29.35-41.732v-14.464zm-300.331-276.214c0-46.065 37.478-83.543 83.544-83.543s83.544 37.478 83.544 83.543v6.37h-167.088zm-103.466 36.37h373.797v209.844h-50.76v-64.98h-30v64.98h-50.759v-104.922h-30v104.922h-50.76v-64.98h-30v64.98h-50.76v-104.922h-30v104.922h-50.759v-209.844zm14.572 310.39c-7.912 0-14.349-6.438-14.349-14.35s6.437-14.349 14.349-14.349 14.349 6.437 14.349 14.349-6.437 14.35-14.349 14.35zm344.875 0c-7.912 0-14.349-6.438-14.349-14.35s6.437-14.349 14.349-14.349 14.35 6.437 14.35 14.349-6.437 14.35-14.35 14.35zm-15-56.082c-12.406 4.473-22.259 14.326-26.732 26.732h-261.41c-4.473-12.406-14.327-22.259-26.733-26.732v-14.464h314.875z" fill="#f79638" data-original="#000000" style="" class=""/></g></g></svg>
